<svg width="182" height="121" viewBox="0 0 182 121" fill="none" xmlns="http://www.w3.org/2000/svg">
<path d="M1.96195 2.74686L45.7639 41.7469C45.947 41.9099 46.1837 42 46.4289 42H135.202C135.446 42 135.681 41.9109 135.864 41.7495L180.019 2.74951C180.71 2.13976 180.278 1 179.357 1H2.62693C1.70782 1 1.2755 2.13567 1.96195 2.74686Z" fill="#5A3971" stroke="#5A3971"/>
<rect x="132" y="84" width="37" height="36" fill="#7A4A9C"/>
<rect x="14" y="84" width="31" height="36" fill="#7A4A9C"/>
<rect x="43" y="74" width="99" height="46" fill="#7A4A9C"/>
<path d="M117.942 22C146.109 22 168.942 44.8335 168.942 73V84H13.9424V73C13.9424 44.8335 36.7759 22.0001 64.9424 22H117.942Z" fill="#7A4A9C"/>
<path d="M92.0001 32C74.9649 32 66 22 66 22L118 22C118 22 109.035 32 92.0001 32Z" fill="#232932"/>
<path d="M43.5 68C43.5 67.7239 43.2761 67.5 43 67.5C42.7239 67.5 42.5 67.7239 42.5 68L43 68L43.5 68ZM43 117L43.5 117L43.5 68L43 68L42.5 68L42.5 117L43 117Z" fill="#5A3971"/>
<path d="M142.5 68C142.5 67.7239 142.276 67.5 142 67.5C141.724 67.5 141.5 67.7239 141.5 68H142H142.5ZM142 117H142.5V68H142H141.5V117H142Z" fill="#5A3971"/>
<circle cx="96" cy="92" r="2" fill="#F5F5F5"/>
<circle cx="96" cy="102" r="2" fill="#F5F5F5"/>
<circle cx="96" cy="112" r="2" fill="#F5F5F5"/>
<path d="M92.5 82C89.2393 97.1233 88.9899 105.421 92.5 120" stroke="#5A3971"/>
<path d="M91.3229 38.6229C91.7057 38.2708 92.2943 38.2708 92.6771 38.6229L116.2 60.2641C116.631 60.6602 116.631 61.3398 116.2 61.7359L92.6771 83.3771C92.2943 83.7292 91.7057 83.7292 91.3229 83.3771L67.7999 61.7359C67.3693 61.3398 67.3693 60.6602 67.7999 60.2641L91.3229 38.6229Z" fill="#232932"/>
<path d="M102.5 34.5L12.9829 116.5C8.14793 45.2561 20.5044 26.0523 64.4829 22L102.5 34.5Z" fill="#5A3971" stroke="#5A3971"/>
<path d="M83 35.5L169.017 116.5C173.852 45.2561 161.496 26.0523 117.517 22L83 35.5Z" fill="#5A3971" stroke="#5A3971"/>
<path d="M91.6831 31.8272L65.3059 21.7284L117.947 21.4373L91.6831 31.8272Z" fill="#999999"/>
<path d="M65 0H117V22H65V0Z" fill="#999999"/>
</svg>
