<svg width="182" height="137" viewBox="0 0 182 137" fill="none" xmlns="http://www.w3.org/2000/svg">
<path d="M1.40606 5.64886L45.7488 57.6489C45.9388 57.8717 46.2169 58 46.5097 58H135.121C135.412 58 135.689 57.8729 135.879 57.6519L180.58 5.65188C181.137 5.00349 180.677 4 179.822 4H2.16696C1.3138 4 0.852476 4.99968 1.40606 5.64886Z" fill="#5A3971" stroke="#5A3971"/>
<rect x="132" y="100" width="37" height="36" fill="#7A4A9C"/>
<rect x="14" y="100" width="31" height="36" fill="#7A4A9C"/>
<rect x="43" y="90" width="99" height="46" fill="#7A4A9C"/>
<path d="M117.942 38C146.109 38 168.942 60.8335 168.942 89V100H13.9424V89C13.9424 60.8335 36.7759 38.0001 64.9424 38H117.942Z" fill="#7A4A9C"/>
<path d="M92.0001 48C74.9649 48 66 38 66 38L118 38C118 38 109.035 48 92.0001 48Z" fill="#232932"/>
<path d="M43.5 84C43.5 83.7239 43.2761 83.5 43 83.5C42.7239 83.5 42.5 83.7239 42.5 84L43 84L43.5 84ZM43 133L43.5 133L43.5 84L43 84L42.5 84L42.5 133L43 133Z" fill="#5A3971"/>
<path d="M142.5 84C142.5 83.7239 142.276 83.5 142 83.5C141.724 83.5 141.5 83.7239 141.5 84H142H142.5ZM142 133H142.5V84H142H141.5V133H142Z" fill="#5A3971"/>
<circle cx="96" cy="108" r="2" fill="#F5F5F5"/>
<circle cx="96" cy="118" r="2" fill="#F5F5F5"/>
<circle cx="96" cy="128" r="2" fill="#F5F5F5"/>
<path d="M92.5 98C89.2393 113.123 88.9899 121.421 92.5 136" stroke="#5A3971"/>
<path d="M91.3229 54.6229C91.7057 54.2708 92.2943 54.2708 92.6771 54.6229L116.2 76.2641C116.631 76.6602 116.631 77.3398 116.2 77.7359L92.6771 99.3771C92.2943 99.7292 91.7057 99.7292 91.3229 99.3771L67.7999 77.7359C67.3693 77.3398 67.3693 76.6602 67.7999 76.2641L91.3229 54.6229Z" fill="#232932"/>
<path d="M102.5 50.5L12.9829 132.5C8.14793 61.2561 20.5044 42.0523 64.4829 38L102.5 50.5Z" fill="#5A3971" stroke="#5A3971"/>
<path d="M83 51.5L169.017 132.5C173.852 61.2561 161.496 42.0523 117.517 38L83 51.5Z" fill="#5A3971" stroke="#5A3971"/>
<path d="M91.6831 47.8272L65.3059 37.7284L117.947 37.4373L91.6831 47.8272Z" fill="#999999"/>
<path d="M65.5 0H117.5V38H65.5V0Z" fill="#999999"/>
</svg>
