<svg width="121" height="150" viewBox="0 0 121 150" fill="none" xmlns="http://www.w3.org/2000/svg">
<path d="M0 50C0 22.3858 22.3858 0 50 0H70.6089C98.2231 0 120.609 22.3858 120.609 50V111.251H0V50Z" fill="#333333"/>
<rect x="33.5525" y="80.9209" width="55.2632" height="69.0789" fill="#999999"/>
<rect x="9.41742" y="24.9536" width="102.933" height="97.7347" rx="46" fill="#A8A8A8"/>
<path d="M6.29834 58.225C6.29834 39.8497 21.1945 24.9536 39.5697 24.9536H81.159C99.5343 24.9536 114.43 39.8497 114.43 58.225V58.225H6.29834V58.225Z" fill="#333333"/>
<path d="M70.7615 30.1528L75.2637 62.1246H66.2594L70.7615 30.1528Z" fill="#A8A8A8"/>
<path d="M27.0794 60.5577C33.4778 56.7139 40.89 54.7633 51.003 58.1269" stroke="#333333" stroke-linecap="round"/>
<path d="M70.1409 60.6504C76.5394 56.8066 83.9516 54.8561 94.0645 58.2197" stroke="#333333" stroke-linecap="round"/>
<ellipse cx="35" cy="86.0933" rx="12" ry="6" fill="#999999"/>
<ellipse cx="89" cy="86.0933" rx="12" ry="6" fill="#999999"/>
<path d="M61.5933 74.0418C61.952 73.2709 63.048 73.2709 63.4067 74.0418L68.6104 85.2254C68.8304 85.6982 68.6503 86.2636 68.1882 86.5052C64.084 88.6511 61.3401 88.5994 56.8716 86.4888C56.3833 86.2583 56.1809 85.6738 56.4087 85.1843L61.5933 74.0418Z" fill="#999999"/>
<path d="M56 86.3433C61.1487 88.8167 63.8735 88.706 68.5 86.3433" stroke="black" stroke-linecap="round"/>
</svg>
